<svg width="47" height="40" viewBox="0 0 47 40" fill="none" xmlns="http://www.w3.org/2000/svg">
<path fill-rule="evenodd" clip-rule="evenodd" d="M15.0422 1.7765C17.2729 1.6865 17.9841 1.6665 23.6664 1.6665C29.3487 1.6665 30.0599 1.68817 32.2887 1.7765C34.5174 1.86484 36.0388 2.1765 37.37 2.62817C38.7639 3.08984 40.0285 3.8115 41.0745 4.74484C42.1394 5.65984 42.961 6.7665 43.4858 7.98984C44.0031 9.1565 44.3568 10.4898 44.4595 12.4398C44.5622 14.3982 44.585 15.0215 44.585 19.9998C44.585 24.9798 44.5603 25.6032 44.4595 27.5582C44.3587 29.5082 44.0031 30.8415 43.4858 32.0082C42.9609 33.2317 42.1381 34.3402 41.0745 35.2565C40.0285 36.1898 38.7639 36.9098 37.37 37.3698C36.0388 37.8232 34.5174 38.1332 32.2925 38.2232C30.0599 38.3132 29.3487 38.3332 23.6664 38.3332C17.9841 38.3332 17.2729 38.3115 15.0422 38.2232C12.8173 38.1348 11.2959 37.8232 9.96472 37.3698C8.56873 36.9098 7.30391 36.1886 6.25832 35.2565C5.1941 34.341 4.37054 33.233 3.84508 32.0098C3.32972 30.8432 2.97601 29.5098 2.87331 27.5598C2.77062 25.6015 2.7478 24.9782 2.7478 19.9998C2.7478 15.0198 2.77252 14.3965 2.87331 12.4432C2.9741 10.4898 3.32972 9.1565 3.84508 7.98984C4.37132 6.76664 5.1955 5.65869 6.26023 4.74317C7.30433 3.81067 8.56787 3.08891 9.96282 2.62817C11.294 2.1765 12.8154 1.8665 15.0403 1.7765H15.0422ZM32.1194 5.0765C29.9135 4.98817 29.2517 4.96984 23.6664 4.96984C18.0811 4.96984 17.4193 4.98817 15.2134 5.0765C13.1729 5.15817 12.0661 5.4565 11.3282 5.70817C10.3527 6.0415 9.65474 6.4365 8.92259 7.07817C8.22856 7.66992 7.69444 8.39031 7.3594 9.1865C7.07225 9.83317 6.73184 10.8032 6.63866 12.5915C6.53787 14.5248 6.51695 15.1048 6.51695 19.9998C6.51695 24.8948 6.53787 25.4748 6.63866 27.4082C6.73184 29.1965 7.07225 30.1665 7.3594 30.8132C7.6941 31.6082 8.22848 32.3298 8.92259 32.9215C9.59769 33.5298 10.4211 33.9982 11.3282 34.2915C12.0661 34.5432 13.1729 34.8415 15.2134 34.9232C17.4193 35.0115 18.0792 35.0298 23.6664 35.0298C29.2536 35.0298 29.9135 35.0115 32.1194 34.9232C34.1599 34.8415 35.2667 34.5432 36.0046 34.2915C36.9801 33.9582 37.6781 33.5632 38.4102 32.9215C39.1043 32.3298 39.6387 31.6082 39.9734 30.8132C40.2606 30.1665 40.601 29.1965 40.6941 27.4082C40.7949 25.4748 40.8158 24.8948 40.8158 19.9998C40.8158 15.1048 40.7949 14.5248 40.6941 12.5915C40.601 10.8032 40.2606 9.83317 39.9734 9.1865C39.5931 8.3315 39.1424 7.71984 38.4102 7.07817C37.735 6.46996 36.913 6.00185 36.0046 5.70817C35.2667 5.4565 34.1599 5.15817 32.1194 5.0765ZM20.9945 25.6515C22.4867 26.1959 24.1482 26.2694 25.6954 25.8594C27.2425 25.4494 28.5792 24.5814 29.4772 23.4036C30.3752 22.2258 30.7788 20.8113 30.6191 19.4017C30.4593 17.9921 29.7461 16.6748 28.6013 15.6748C27.8715 15.0356 26.9891 14.5462 26.0175 14.2417C25.046 13.9373 24.0095 13.8254 22.9827 13.9142C21.9559 14.003 20.9644 14.2901 20.0794 14.7551C19.1945 15.22 18.4382 15.8511 17.8649 16.6029C17.2917 17.3548 16.9158 18.2087 16.7642 19.1031C16.6127 19.9976 16.6894 20.9103 16.9887 21.7757C17.288 22.6411 17.8025 23.4375 18.4952 24.1077C19.1878 24.7779 20.0414 25.3051 20.9945 25.6515ZM16.0634 13.3365C17.0619 12.4615 18.2472 11.7673 19.5517 11.2938C20.8562 10.8202 22.2544 10.5765 23.6664 10.5765C25.0784 10.5765 26.4766 10.8202 27.7811 11.2938C29.0856 11.7673 30.2709 12.4615 31.2694 13.3365C32.2678 14.2115 33.0598 15.2504 33.6001 16.3937C34.1405 17.537 34.4186 18.7623 34.4186 19.9998C34.4186 21.2373 34.1405 22.4627 33.6001 23.606C33.0598 24.7493 32.2678 25.7881 31.2694 26.6632C29.2529 28.4304 26.5181 29.4232 23.6664 29.4232C20.8147 29.4232 18.0799 28.4304 16.0634 26.6632C14.047 24.8959 12.9142 22.4991 12.9142 19.9998C12.9142 17.5006 14.047 15.1037 16.0634 13.3365ZM36.8033 11.9798C37.0507 11.7753 37.2488 11.5293 37.3858 11.2565C37.5228 10.9836 37.5959 10.6895 37.6009 10.3914C37.6058 10.0933 37.5425 9.79742 37.4146 9.52119C37.2868 9.24496 37.097 8.99402 36.8565 8.78324C36.6159 8.57245 36.3296 8.4061 36.0144 8.29403C35.6993 8.18197 35.3616 8.12646 35.0215 8.13081C34.6814 8.13515 34.3458 8.19926 34.0345 8.31933C33.7231 8.4394 33.4425 8.613 33.2091 8.82984C32.7552 9.25155 32.5067 9.81171 32.5163 10.3914C32.5259 10.9711 32.793 11.5246 33.2607 11.9346C33.7285 12.3445 34.3601 12.5786 35.0215 12.587C35.683 12.5955 36.3221 12.3777 36.8033 11.9798Z" fill="#3A3A3A"/>
</svg>
