<svg width="46" height="40" viewBox="0 0 46 40" fill="none" xmlns="http://www.w3.org/2000/svg">
<path fill-rule="evenodd" clip-rule="evenodd" d="M2.13135 4.72984C2.13135 3.91739 2.4996 3.13822 3.1551 2.56374C3.8106 1.98925 4.69964 1.66651 5.62666 1.66651H40.4694C40.9288 1.66585 41.3839 1.74461 41.8085 1.89829C42.2331 2.05196 42.619 2.27752 42.944 2.56207C43.269 2.84661 43.5268 3.18455 43.7026 3.55652C43.8784 3.9285 43.9688 4.32722 43.9685 4.72984V35.2665C43.969 35.6692 43.8789 36.068 43.7034 36.4402C43.5278 36.8124 43.2703 37.1505 42.9455 37.4354C42.6207 37.7202 42.2349 37.9461 41.8104 38.1002C41.3859 38.2542 40.9308 38.3334 40.4713 38.3332H5.62666C5.16749 38.3332 4.71281 38.2539 4.28862 38.0998C3.86443 37.9458 3.47902 37.72 3.15443 37.4354C2.82983 37.1507 2.57241 36.8128 2.39687 36.441C2.22132 36.0691 2.1311 35.6706 2.13135 35.2682V4.72984ZM18.6913 15.6465H24.3564V18.1398C25.1741 16.7065 27.266 15.4165 30.4095 15.4165C36.436 15.4165 37.8641 18.2715 37.8641 23.5098V33.2132H31.7654V24.7032C31.7654 21.7198 30.9477 20.0365 28.871 20.0365C25.99 20.0365 24.7919 21.8515 24.7919 24.7032V33.2132H18.6913V15.6465ZM8.23197 32.9848H14.3326V15.4165H8.23197V32.9832V32.9848ZM15.2055 9.68651C15.217 10.1443 15.124 10.5995 14.9321 11.0254C14.7401 11.4512 14.4531 11.8392 14.0877 12.1666C13.7224 12.4939 13.2861 12.754 12.8045 12.9315C12.3229 13.1091 11.8057 13.2005 11.2832 13.2005C10.7608 13.2005 10.2436 13.1091 9.76197 12.9315C9.28038 12.754 8.8441 12.4939 8.47875 12.1666C8.1134 11.8392 7.82633 11.4512 7.63439 11.0254C7.44244 10.5995 7.3495 10.1443 7.361 9.68651C7.38358 8.78793 7.80673 7.93283 8.53983 7.30432C9.27293 6.67581 10.2577 6.32387 11.2832 6.32387C12.3088 6.32387 13.2935 6.67581 14.0266 7.30432C14.7597 7.93283 15.1829 8.78793 15.2055 9.68651Z" fill="#3A3A3A"/>
</svg>
