<svg width="47" height="40" viewBox="0 0 47 40" fill="none" xmlns="http://www.w3.org/2000/svg">
<g clip-path="url(#clip0_19908_3288)">
<path d="M45.4458 10.8448C45.1874 10.0369 44.684 9.30538 43.9891 8.72813C43.2746 8.13314 42.3989 7.70753 41.4446 7.49147C37.8733 6.66647 23.5649 6.66647 23.5649 6.66647C17.6 6.60699 11.6364 6.86859 5.70806 7.4498C4.75377 7.68182 3.8797 8.11695 3.1636 8.71647C2.45997 9.3098 1.95032 10.0415 1.68408 10.8431C1.04453 13.8627 0.733792 16.9287 0.756057 19.9998C0.733236 23.0681 1.04321 26.1331 1.68408 29.1565C1.94461 29.9548 2.45236 30.6831 3.15789 31.2715C3.86342 31.8598 4.742 32.2848 5.70806 32.5098C9.32698 33.3331 23.5649 33.3331 23.5649 33.3331C29.5375 33.3927 35.5086 33.1311 41.4446 32.5498C42.3989 32.3337 43.2746 31.9081 43.9891 31.3131C44.6837 30.736 45.1865 30.0044 45.4439 29.1965C46.1001 26.1781 46.4192 23.1108 46.3966 20.0381C46.446 16.9525 46.1273 13.8707 45.4458 10.8431V10.8448ZM19.0161 25.7065V14.2948L30.9207 20.0015L19.0161 25.7065Z" fill="#3A3A3A"/>
</g>
<defs>
<clipPath id="clip0_19908_3288">
<rect width="45.6406" height="40" fill="white" transform="translate(0.755859)"/>
</clipPath>
</defs>
</svg>
