<svg width="47" height="40" viewBox="0 0 47 40" fill="none" xmlns="http://www.w3.org/2000/svg">
<g clip-path="url(#clip0_19908_3294)">
<path fill-rule="evenodd" clip-rule="evenodd" d="M0.703369 20.1117C0.703369 30.055 8.9434 38.3233 19.7203 40V25.555H14.0152V20H19.7203V15.555C19.7203 10.555 23.3962 7.77833 28.5955 7.77833C30.2423 7.77833 32.0185 8 33.6654 8.22167V13.3333H30.7501C27.9603 13.3333 27.327 14.555 27.327 16.1117V20H33.4125L32.3989 25.555H27.327V40C38.1039 38.3233 46.344 30.0567 46.344 20.1117C46.344 9.05 36.0748 0 23.5237 0C10.9725 0 0.703369 9.05 0.703369 20.1117Z" fill="#3A3A3A"/>
</g>
<defs>
<clipPath id="clip0_19908_3294">
<rect width="45.6406" height="40" fill="white" transform="translate(0.703369)"/>
</clipPath>
</defs>
</svg>
